<?xml version="1.0" standalone="no"?>
<!DOCTYPE svg PUBLIC "-//W3C//DTD SVG 20010904//EN"
 "http://www.w3.org/TR/2001/REC-SVG-20010904/DTD/svg10.dtd">
<svg version="1.0" xmlns="http://www.w3.org/2000/svg"
 width="300.000000pt" height="136.000000pt" viewBox="0 0 300.000000 136.000000"
 preserveAspectRatio="xMidYMid meet">
<metadata>
Created by potrace 1.10, written by Peter Selinger 2001-2011
</metadata>
<g transform="translate(0.000000,136.000000) scale(0.100000,-0.100000)"
fill="#23a071" stroke="none">
<path d="M595 831 c-172 -79 -143 -340 42 -379 80 -18 181 17 165 56 -29 68
-47 92 -61 86 -9 -4 -30 -9 -47 -11 -58 -9 -87 72 -41 115 28 26 45 27 75 6
13 -9 25 -14 27 -13 1 2 17 27 33 56 23 38 28 54 19 61 -56 45 -145 54 -212
23z"/>
<path d="M925 831 c-73 -34 -115 -102 -115 -187 0 -123 121 -220 243 -192 115
26 180 126 155 241 -26 123 -167 192 -283 138z m105 -178 c0 -85 -6 -117 -21
-107 -10 6 -12 197 -2 207 14 15 23 -21 23 -100z"/>
<path d="M1262 653 l3 -198 93 -3 c120 -4 166 9 218 62 63 63 76 146 35 225
-41 81 -117 111 -279 111 l-72 0 2 -197z m193 -8 c0 -62 -4 -90 -12 -92 -10
-4 -13 19 -13 92 0 73 3 96 13 93 8 -3 12 -31 12 -93z"/>
<path d="M1990 830 c0 -5 5 -10 11 -10 19 0 1 -63 -22 -83 -28 -23 -20 -30 25
-21 27 5 34 9 27 18 -14 17 6 86 24 86 8 0 15 5 15 10 0 6 -18 10 -40 10 -22
0 -40 -4 -40 -10z"/>
<path d="M2263 813 c-23 -4 -32 -23 -12 -23 7 0 9 -11 6 -28 -3 -15 -2 -34 2
-41 6 -8 10 -2 15 20 8 40 23 59 46 59 15 0 17 -6 13 -40 -3 -24 -2 -40 4 -40
12 0 26 76 18 91 -6 9 -50 10 -92 2z"/>
<path d="M2424 806 c-24 -17 -50 -73 -40 -84 4 -3 11 0 15 7 9 14 51 6 51 -10
0 -5 5 -9 10 -9 13 0 12 37 -3 78 -11 30 -13 31 -33 18z m16 -35 c0 -6 -4 -13
-10 -16 -5 -3 -10 1 -10 9 0 9 5 16 10 16 6 0 10 -4 10 -9z"/>
<path d="M2515 810 c-28 -7 -29 -8 -8 -15 18 -6 21 -11 13 -25 -13 -25 -13
-60 1 -60 5 0 8 3 6 8 -10 15 28 77 50 80 19 3 21 0 16 -37 -3 -25 -2 -41 4
-41 12 0 26 76 18 91 -7 10 -57 10 -100 -1z"/>
<path d="M2652 771 c6 -59 16 -74 32 -47 25 41 48 66 57 60 5 -3 5 -13 -2 -25
-6 -11 -8 -27 -5 -35 6 -16 53 -19 76 -4 16 10 8 13 -27 10 -32 -2 -29 14 5
27 l27 10 -25 10 -25 11 28 7 c45 12 30 24 -25 20 -40 -2 -56 -9 -67 -24 -17
-26 -31 -27 -31 -2 0 11 -5 23 -11 27 -9 5 -10 -8 -7 -45z"/>
<path d="M1721 794 c-31 -22 -61 -90 -61 -139 0 -125 83 -203 173 -160 41 19
89 97 71 115 -14 14 -60 -3 -91 -32 -14 -13 -28 -18 -40 -14 -16 7 -16 9 7 27
141 113 145 121 85 185 -27 29 -39 34 -76 34 -25 0 -55 -7 -68 -16z m63 -95
c-33 -34 -34 -35 -34 -10 0 26 27 52 46 44 12 -5 10 -11 -12 -34z"/>
<path d="M2076 771 c-18 -39 -13 -81 6 -47 7 13 12 14 29 3 17 -10 22 -9 35 7
15 22 19 76 5 76 -5 0 -11 -13 -14 -30 -8 -37 -30 -40 -25 -3 5 41 -17 38 -36
-6z"/>
<path d="M2185 769 c-6 -36 -2 -60 9 -48 10 11 17 89 8 89 -6 0 -13 -18 -17
-41z"/>
</g>
</svg>
